<svg data-v-6805eed4="" version="1.0" xmlns="http://www.w3.org/2000/svg" xmlns:xlink="http://www.w3.org/1999/xlink" width="100%" height="100%" viewBox="0 0 340.000000 250.000000" preserveAspectRatio="xMidYMid meet" color-interpolation-filters="sRGB" style="margin: auto;"> <rect data-v-6805eed4="" x="0" y="0" width="100%" height="100%" fill="#ffffff" fill-opacity="0" class="background"></rect> <rect data-v-6805eed4="" x="0" y="0" width="100%" height="100%" fill="url(#watermark)" fill-opacity="1" class="watermarklayer"></rect> <g data-v-6805eed4="" fill="#cc2229" class="basesvg" transform="translate(78.94720458984375,101.15029907226562)"><g data-gra="path-name" fill-rule="" class="tp-name" opacity="1" transform="matrix(1,0,0,1,0,0)"><g transform="scale(0.8199999999999998)"><g><path d="M30.3-54.94500000000001Q30.3-54.94500000000001 30.3-54.94500000000001 30.3-50.715 30.3-46.695 24.66-47.099999999999994 19.03-47.505 19.03-26.52 19.03-5.5200000000000005 15.73-4.785 12.43-4.035 12.43-26.009999999999998 12.43-48 6.76-48.405 1.1-48.824999999999996 1.1-53.745 1.1-58.665 6.76-57.915 12.43-57.17999999999999 15.73-56.760000000000005 19.03-56.34 24.66-55.635000000000005 30.3-54.94500000000001 30.3-54.94500000000001 30.3-54.94500000000001M58.23-44.910000000000004Q58.23-44.910000000000004 58.23-44.910000000000004 48.58-45.480000000000004 38.93-46.095 38.93-40.724999999999994 38.93-35.355000000000004 46.1-35.385 53.28-35.385 54.11-31.935 54.94-28.53 46.93-28.185 38.93-27.78 38.93-22.41 38.93-17.04 48.58-18.165 58.23-19.125 58.23-15.765 58.23-12.405 45.28-10.53 32.33-8.25 32.33-31.365000000000002 32.33-54.705 45.28-53.265 58.23-51.989999999999995 58.23-48.269999999999996 58.23-44.910000000000004 58.23-44.910000000000004 58.23-44.910000000000004M86.55-23.835Q88.89-21.855 91.23-19.89 88.48-17.325000000000003 84.84-15.72 81.22-14.07 77.04-13.725000000000001 77.04-13.725000000000001 77.04-13.725000000000001 72.91-13.365 69.25-14.49 65.59-15.66 62.87-18.075000000000003 60.15-20.580000000000002 58.58-24.165 57.02-27.825000000000003 57.02-32.055 57.02-32.055 57.02-32.055 57.02-36.285000000000004 58.58-40.005 60.15-43.650000000000006 62.87-46.214999999999996 65.59-48.72 69.25-50.13 72.91-51.915 77.04-51.644999999999996 77.04-51.644999999999996 77.04-51.644999999999996 81.22-51.405 84.84-49.199999999999996 88.48-47.474999999999994 91.23-44.94 91.23-44.94 91.23-44.94 88.89-42.93 86.55-40.89 84.63-42.660000000000004 82.21-43.665 79.79-44.67 77.04-44.775000000000006 77.04-44.775000000000006 77.04-44.775000000000006 74.34-44.894999999999996 71.92-44.055 69.5-43.17 67.58-41.400000000000006 67.58-41.400000000000006 67.58-41.400000000000006 65.65-39.57 64.63-37.214999999999996 63.62-34.83 63.62-32.160000000000004 63.62-32.160000000000004 63.62-32.160000000000004 63.62-29.490000000000002 64.63-27.119999999999997 65.65-24.75 67.58-22.98 67.58-22.98 67.58-22.98 69.5-21.255 71.92-20.475 74.34-19.68 77.04-19.845 77.04-19.845 77.04-19.845 79.79-20.009999999999998 82.21-21.044999999999998 84.63-22.049999999999997 86.55-23.835 86.55-23.835 86.55-23.835 86.55-23.835 86.55-23.835M115.31-49.545Q115.31-49.545 115.31-49.545 118.61-49.574999999999996 121.91-49.635000000000005 121.91-32.400000000000006 121.91-15.645 118.61-15.705000000000002 115.31-15.75 115.31-22.65 115.31-29.565 107.3-29.565 99.3-29.52 99.3-22.56 99.3-15.615 96-15.51 92.7-15.375 92.7-32.37 92.7-49.83 96-49.724999999999994 99.3-49.650000000000006 99.3-42.224999999999994 99.3-35.28 107.3-35.265 115.31-35.265 115.31-42.165 115.31-49.545 115.31-49.545 115.31-49.545M150.66-44.25Q150.66-44.25 150.66-44.25 141.01-43.875 131.36-43.589999999999996 131.36-39.435 131.36-35.295 138.53-35.31 145.71-35.339999999999996 146.53-32.25 147.36-29.145 139.36-29.325000000000003 131.36-29.445 131.36-22.365000000000002 131.36-15.285 128.06-15.434999999999999 124.76-15.555 124.76-32.400000000000006 124.76-49.69500000000001 137.71-50.175000000000004 150.66-50.94 150.66-47.400000000000006 150.66-44.25 150.66-44.25 150.66-44.25M158.74-19.575000000000003Q158.74-19.575000000000003 158.74-19.575000000000003 166.3-18.9 173.86-18.134999999999998 173.86-14.565000000000001 173.86-10.995000000000001 166.3-12.075000000000001 158.74-13.035 155.44-13.395 152.13-13.74 152.13-16.905 152.13-20.07 152.13-35.325 152.13-50.985 155.44-51.224999999999994 158.74-51.495 158.74-35.339999999999996 158.74-19.575000000000003 158.74-19.575000000000003 158.74-19.575000000000003M183.92-53.97Q183.92-53.97 183.92-53.97 183.92-31.515 183.92-9.315 180.61-9.899999999999999 177.31-10.44 177.31-31.695 177.31-53.25 180.61-53.595 183.92-53.97 183.92-53.97 183.92-53.97M223.18-58.949999999999996Q223.18-58.949999999999996 223.18-58.949999999999996 215.86-44.099999999999994 208.55-30.615000000000002 215.86-16.41 223.18-0.78 219.05-1.7999999999999998 214.93-2.79 209.67-13.544999999999998 204.42-23.549999999999997 199.17-15.195 193.92-7.425000000000001 189.79-8.235 185.67-9 192.98-19.424999999999997 200.3-30.974999999999998 192.98-43.065 185.67-54.239999999999995 189.79-54.705 193.92-55.199999999999996 199.17-46.845 204.42-38.04 209.67-47.58 214.93-57.87 219.05-58.41 223.18-58.949999999999996 223.18-58.949999999999996 223.18-58.949999999999996" transform="translate(-1.100000023841858, 58.95000076293945)"></path></g> <!----> <!----> <!----> <!----> <!----> <!----> <!----></g></g> <!----></g><defs v-gra="od"></defs></svg>
